# File created by Blade
# Date/Time:  Thu Jan 22 15:49:58 2015
# Frame Rate: 120.000 fps
#------------------------------------------------------
:FULLY-SPECIFIED
:DEGREES
1302
root 3.580789 37.116385 4.528034 -5.453231 -0.746578 2.865435
RightUpLeg 13.293953 -7.748464 -6.859380
RightLeg -5.058924 -0.000000 0.000000
RightFoot -11.528159 -13.120034 17.229594
RightToeBase 14.344949 -0.000000 -0.000000
LeftUpLeg 11.289616 4.289311 0.974492
LeftLeg -2.849095 -0.000000 0.000000
LeftFoot -6.371308 7.243241 -16.253251
LeftToeBase 8.547373 -0.000000 -0.000000
Spine 6.210354 -11.873323 -5.979132
RightShoulder 15.283709 -12.664713 -15.849846
RightArm 43.403487 -7.749224 65.490704
RightForeArm 60.624759 -0.000000 127.843237
RightHand 19.533636 0.000000 -2.582202
RightHandThumb1 -24.326973 -0.000000 -32.862282
LeftShoulder -3.677543 -6.225435 43.797312
LeftArm 118.812470 7.655656 -54.482136
LeftForeArm 1.409092 0.000000 119.699216
LeftHand -14.468168 -0.000000 -7.546499
LeftHandThumb1 -26.253704 0.000000 33.147579
Head -5.374382 34.719532 -14.741126
1303
root 3.581435 37.116472 4.548759 -5.441976 -0.924520 2.876875
RightUpLeg 13.298305 -7.559974 -6.856737
RightLeg -5.105151 -0.000000 0.000000
RightFoot -11.505311 -13.109440 17.227963
RightToeBase 14.371190 -0.000000 -0.000000
LeftUpLeg 11.325942 4.441782 0.977380
LeftLeg -2.835318 -0.000000 0.000000
LeftFoot -6.403258 7.251591 -16.252944
LeftToeBase 8.536722 -0.000000 -0.000000
Spine 6.122242 -12.047011 -5.949530
RightShoulder 15.127073 -12.688407 -15.760480
RightArm 43.322141 -7.948591 65.479682
RightForeArm 61.045896 0.000000 128.176077
RightHand 19.544480 -0.000000 -2.426174
RightHandThumb1 -24.326973 -0.000000 -32.862282
LeftShoulder -3.840118 -6.041109 43.783049
LeftArm 119.214392 7.342741 -54.283860
LeftForeArm 1.195336 -0.000000 120.328762
LeftHand -14.373202 -0.000000 -7.786589
LeftHandThumb1 -26.253704 0.000000 33.147579
Head -5.279608 35.276900 -15.002150
1304
root 3.583099 37.116273 4.565307 -5.416567 -1.094863 2.912793
RightUpLeg 13.259618 -7.452614 -6.885004
RightLeg -5.105016 -0.000000 0.000000
RightFoot -11.507956 -13.062100 17.205372
RightToeBase 14.377255 -0.000000 -0.000000
LeftUpLeg 11.339392 4.598613 0.953715
LeftLeg -2.820936 -0.000000 0.000000
LeftFoot -6.425626 7.256837 -16.281114
LeftToeBase 8.501052 -0.000000 -0.000000
Spine 6.019013 -12.349988 -5.960708
RightShoulder 15.088431 -12.721114 -15.703221
RightArm 43.308995 -8.166744 65.371243
RightForeArm 61.379031 -0.000000 128.504960
RightHand 19.617647 -0.000000 -2.430961
RightHandThumb1 -24.326973 -0.000000 -32.862282
LeftShoulder -4.048725 -5.717055 43.757255
LeftArm 119.607569 6.992129 -54.093912
LeftForeArm 0.858793 0.000000 120.919487
LeftHand -14.347488 -0.000000 -8.207287
LeftHandThumb1 -26.253704 0.000000 33.147579
Head -5.203655 35.940756 -15.269507
1305
root 3.583561 37.116075 4.585732 -5.431779 -1.269835 2.943543
RightUpLeg 13.236603 -7.386112 -6.912651
RightLeg -5.046957 -0.000000 0.000000
RightFoot -11.550343 -12.995778 17.188967
RightToeBase 14.400181 -0.000000 -0.000000
LeftUpLeg 11.406275 4.744246 0.938091
LeftLeg -2.819846 -0.000000 0.000000
LeftFoot -6.446789 7.279055 -16.303796
LeftToeBase 8.496268 -0.000000 -0.000000
Spine 5.963524 -12.606488 -5.986106
RightShoulder 15.000667 -12.748961 -15.634903
RightArm 43.265951 -8.387673 65.266033
RightForeArm 61.393732 -0.000000 128.813486
RightHand 19.763257 -0.000000 -2.770642
RightHandThumb1 -24.326973 -0.000000 -32.862282
LeftShoulder -4.258964 -5.388696 43.740582
LeftArm 120.026289 6.692023 -53.940722
LeftForeArm 0.455002 -0.000000 121.489401
LeftHand -14.105738 -0.000000 -8.671329
LeftHandThumb1 -26.253704 0.000000 33.147579
Head -5.158948 36.355028 -15.556801
1306
root 3.584418 37.115180 4.603864 -5.413785 -1.447815 2.973592
RightUpLeg 13.202799 -7.261560 -6.932079
RightLeg -5.040308 -0.000000 0.000000
RightFoot -11.566765 -12.945346 17.190425
RightToeBase 14.445238 -0.000000 -0.000000
LeftUpLeg 11.439292 4.869900 0.916048
LeftLeg -2.823483 -0.000000 0.000000
LeftFoot -6.476702 7.317399 -16.324373
LeftToeBase 8.519994 -0.000000 -0.000000
Spine 5.880075 -12.907914 -5.987340
RightShoulder 14.894906 -12.722752 -15.564180
RightArm 43.254445 -8.652364 65.154087
RightForeArm 61.239338 -0.000000 129.049439
RightHand 19.867542 -0.000000 -3.126676
RightHandThumb1 -24.326973 -0.000000 -32.862282
LeftShoulder -4.544352 -5.015405 43.702782
LeftArm 120.433665 6.434734 -53.814364
LeftForeArm 0.025357 -0.000000 122.029286
LeftHand -13.909008 -0.000000 -9.433300
LeftHandThumb1 -26.253704 0.000000 33.147579
Head -5.149642 36.960868 -15.847366
1307
root 3.587375 37.114391 4.618455 -5.316712 -1.607663 2.991470
RightUpLeg 13.091007 -7.166257 -6.935023
RightLeg -5.039424 -0.000000 0.000000
RightFoot -11.565827 -12.906427 17.165835
RightToeBase 14.496649 -0.000000 -0.000000
LeftUpLeg 11.381099 4.975579 0.890242
LeftLeg -2.820090 -0.000000 0.000000
LeftFoot -6.515125 7.368110 -16.343239
LeftToeBase 8.508737 -0.000000 -0.000000
Spine 5.709622 -12.980862 -5.937391
RightShoulder 14.461781 -12.763250 -15.396790
RightArm 43.272746 -8.936235 64.997339
RightForeArm 61.058754 -0.000000 129.197910
RightHand 19.992591 0.000000 -3.514880
RightHandThumb1 -24.326973 -0.000000 -32.862282
LeftShoulder -4.602588 -5.075934 43.758145
LeftArm 120.644700 6.426397 -53.790838
LeftForeArm -0.432558 0.000000 122.560053
LeftHand -13.951119 0.000000 -10.122268
LeftHandThumb1 -26.253704 0.000000 33.147579
Head -5.085487 37.440735 -16.027415
1308
root 3.587331 37.113112 4.634909 -5.287670 -1.766326 3.020709
RightUpLeg 13.065833 -6.998140 -6.951688
RightLeg -5.064531 -0.000000 0.000000
RightFoot -11.572358 -12.869367 17.176775
RightToeBase 14.499021 -0.000000 -0.000000
LeftUpLeg 11.396182 5.104944 0.871837
LeftLeg -2.822721 -0.000000 0.000000
LeftFoot -6.531586 7.389578 -16.358082
LeftToeBase 8.482781 -0.000000 -0.000000
Spine 5.615882 -13.104387 -5.948304
RightShoulder 14.166521 -12.799512 -15.304989
RightArm 43.253116 -9.112763 64.965941
RightForeArm 60.841884 0.000000 129.268139
RightHand 20.013449 0.000000 -3.436674
RightHandThumb1 -24.326973 -0.000000 -32.862282
LeftShoulder -4.704615 -4.963013 43.765894
LeftArm 120.951484 6.364233 -53.740021
LeftForeArm -0.987679 -0.000000 122.978249
LeftHand -13.795889 0.000000 -10.694552
LeftHandThumb1 -26.253704 0.000000 33.147579
Head -5.006043 37.848025 -16.175239
1309
root 3.586189 37.111300 4.653184 -5.245408 -1.922927 3.033861
RightUpLeg 13.026010 -6.850024 -6.950310
RightLeg -5.080000 -0.000000 0.000000
RightFoot -11.577620 -12.834572 17.165425
RightToeBase 14.495246 -0.000000 -0.000000
LeftUpLeg 11.405649 5.258634 0.874152
LeftLeg -2.831578 -0.000000 0.000000
LeftFoot -6.555022 7.383210 -16.358656
LeftToeBase 8.449320 -0.000000 -0.000000
Spine 5.504149 -13.115232 -5.935198
RightShoulder 13.696849 -12.823050 -15.180116
RightArm 43.216008 -9.331292 64.950854
RightForeArm 60.871622 0.000000 129.261815
RightHand 19.959170 0.000000 -3.320011
RightHandThumb1 -24.326973 -0.000000 -32.862282
LeftShoulder -4.746029 -4.913849 43.766374
LeftArm 121.302369 6.327824 -53.705513
LeftForeArm -1.525643 -0.000000 123.346138
LeftHand -13.724841 0.000000 -11.284067
LeftHandThumb1 -26.253704 0.000000 33.147579
Head -4.920770 38.147390 -16.259242
1310
root 3.583365 37.110015 4.668534 -5.210376 -2.047097 3.049605
RightUpLeg 12.994409 -6.758423 -6.954529
RightLeg -5.091930 -0.000000 0.000000
RightFoot -11.582321 -12.795624 17.144372
RightToeBase 14.559792 -0.000000 -0.000000
LeftUpLeg 11.414839 5.364888 0.873604
LeftLeg -2.843191 -0.000000 0.000000
LeftFoot -6.564581 7.379853 -16.388421
LeftToeBase 8.412267 -0.000000 -0.000000
Spine 5.409104 -13.267425 -5.947843
RightShoulder 13.369514 -12.813930 -15.082557
RightArm 43.191991 -9.536001 64.916095
RightForeArm 60.993983 -0.000000 129.227246
RightHand 20.073585 -0.000000 -3.286216
RightHandThumb1 -24.326973 -0.000000 -32.862282
LeftShoulder -4.824003 -4.769093 43.746441
LeftArm 121.645901 6.263244 -53.649741
LeftForeArm -1.954844 -0.000000 123.677788
LeftHand -13.577319 -0.000000 -11.920197
LeftHandThumb1 -26.253704 0.000000 33.147579
Head -4.824925 38.586556 -16.326736
